Coordinates
version=1
nRows=11
nColumns=36
inDegrees=yes

Units are S.I. units (second, meters, Newtons, ...)
If the header above contains a line with 'inDegrees', this indicates whether rotational values are in degrees (yes) or radians (no).

endheader
time	pelvis_tilt	pelvis_list	pelvis_rotation	pelvis_tx	pelvis_ty	pelvis_tz	hip_flexion_r	hip_adduction_r	hip_rotation_r	knee_angle_r	knee_angle_r_beta	ankle_angle_r	subtalar_angle_r	mtp_angle_r	hip_flexion_l	hip_adduction_l	hip_rotation_l	knee_angle_l	knee_angle_l_beta	ankle_angle_l	subtalar_angle_l	mtp_angle_l	lumbar_extension	lumbar_bending	lumbar_rotation	arm_flex_r	arm_add_r	arm_rot_r	elbow_flex_r	pro_sup_r	arm_flex_l	arm_add_l	arm_rot_l	elbow_flex_l	pro_sup_l
      5.80000000	    -10.27857014	     -2.53057568	      5.05430615	      1.15808336	      0.77093835	      0.23507682	     35.66572794	      9.43744571	     -4.62950410	     62.36898568	      1.08854415	     38.61952831	     -0.33246099	     -7.49999987	     64.23137275	     -9.37235398	      5.22774839	     23.64781888	      0.41273230	    -13.68449837	    -24.52124644	     -7.49999987	     -0.65129618	      8.77263516	     -5.22475164	     36.43216457	     -6.29861629	     62.31223091	    132.74941988	    102.10294869	     35.21755489	      0.44994130	     70.16467021	    123.53748870	    108.06624930
      5.81666670	    -10.42508134	     -2.49260855	      4.93386038	      1.15761388	      0.76500689	      0.23509240	     36.33194040	      9.22674820	     -4.93219314	     63.34162165	      1.10551985	     39.28740722	      0.12774881	     -7.49999987	     64.68599096	     -9.27903681	      5.69893941	     24.06988832	      0.42009880	    -13.77828675	    -25.32462166	     -7.49999987	     -0.53983204	      8.81207452	     -5.53539279	     37.02770498	     -6.01383762	     63.39185865	    133.74133375	     98.53021960	     36.21490386	      0.86330531	     70.11978368	    123.11129744	    104.79761933
      5.83333330	    -10.60841657	     -2.57362984	      4.68271990	      1.15803751	      0.76464653	      0.23538615	     36.67424299	      9.39963192	     -4.82285670	     63.66805730	      1.11121723	     39.35266948	     -0.09720570	     -7.49999987	     64.63844402	     -9.46746901	      5.70086183	     24.06327238	      0.41998333	    -13.51726095	    -24.99757534	     -7.49999987	     -0.48502520	      8.87183957	     -5.38995097	     37.43953171	     -5.55705421	     64.09570702	    133.51010473	     98.76219889	     36.84120150	      0.96212031	     70.55413852	    123.54687674	    105.13918079
      5.85000000	    -10.76004594	     -2.58461391	      4.48577525	      1.15770390	      0.75861775	      0.23556207	     37.08541228	      9.36182040	     -4.88250072	     64.23974043	      1.12119498	     39.84042259	      0.05638539	     -7.49999987	     64.91880429	     -9.58076888	      5.78150292	     24.38941609	      0.42567561	    -13.75468968	    -25.27888743	     -7.49999987	     -0.41913075	      8.83707165	     -5.39509677	     37.77099914	     -5.20049435	     65.64237268	    133.51041051	     96.16011104	     37.77656685	      1.31956276	     70.95845620	    123.55860708	    102.06020438
      5.86666670	    -11.18802010	     -2.79684313	      4.44219326	      1.15747044	      0.75635340	      0.23474012	     37.92786221	      9.48360185	     -5.13058570	     64.87080623	      1.13220916	     40.04426077	     -0.19222145	     -7.49999987	     65.38795717	     -9.66376712	      6.05252344	     24.38642601	      0.42562343	    -14.05805750	    -25.39830318	     -7.49999987	      0.08779859	      9.22636356	     -6.20348073	     38.35506216	     -4.35033739	     67.71335642	    132.99796296	    101.16489619	     38.06147986	      1.40938518	     70.17053944	    124.35748513	    107.59276711
      5.88333330	    -11.48586141	     -3.01142787	      4.32472233	      1.15727875	      0.75027184	      0.23490448	     38.69484682	      9.63148597	     -5.38660674	     65.68574176	      1.14643247	     40.65769826	      0.09904895	     -7.49999987	     66.03418461	     -9.84768414	      6.38493910	     24.72219240	      0.43148366	    -14.42174354	    -25.63428646	     -7.49999987	      0.49539303	      9.37947105	     -5.61550126	     38.84370537	     -4.80020561	     67.41716422	    133.33665029	    101.64228096	     38.78069167	      2.09560323	     71.02126994	    124.92492078	    107.96195293
      5.90000000	    -11.50684552	     -3.23387137	      4.35742924	      1.15738934	      0.75019333	      0.23472816	     38.87635648	      9.80984062	     -5.58673113	     66.00652593	      1.15203121	     41.25151361	      0.30030693	     -7.49999987	     66.28382450	    -10.01639410	      6.75258663	     25.02543300	      0.43677620	    -15.40973594	    -26.47212364	     -7.49999987	      0.62994894	      9.63152942	     -5.41233602	     39.17995366	     -4.71700288	     67.27897320	    133.03675332	     99.03656891	     38.75071398	      2.02447004	     71.46982115	    125.51889249	    105.15072470
      5.91666670	    -11.49979737	     -3.63221048	      4.16020697	      1.15718660	      0.75036973	      0.23489105	     38.96738908	     10.41867651	     -5.45062240	     65.99882644	      1.15189682	     41.25365086	     -0.48643333	     -7.49999987	     66.41282989	    -10.62073419	      6.64767237	     25.10421728	      0.43815125	    -16.64498023	    -26.71058342	     -7.49999987	      0.44333172	     10.28881341	     -5.66393126	     39.56510583	     -4.38814289	     66.77687585	    132.33774651	    101.29438598	     38.63755958	      1.63736669	     71.64080685	    126.27949143	    108.23038852
      5.93333330	    -11.62027749	     -4.01476687	      4.04746933	      1.15743757	      0.74777936	      0.23525018	     39.25467294	     10.90638489	     -5.43532958	     66.15919746	      1.15469583	     41.47343695	     -0.60506765	     -7.49999987	     66.97072973	    -11.01036995	      6.72613111	     25.53624914	      0.44569163	    -17.47547639	    -27.03697786	     -7.49999987	      0.42360391	     10.65660022	     -5.39732664	     39.78310933	     -4.62079906	     65.62728880	    132.27059944	    101.02761369	     38.73588630	      1.69165943	     71.71234072	    126.38358565	    108.31275745
      5.95000000	    -11.50555727	     -4.33465019	      3.86545652	      1.15698430	      0.74806658	      0.23518660	     39.15796803	     11.34833079	     -5.39322774	     66.22009752	      1.15575873	     41.59823311	     -0.78137290	     -7.49999987	     67.00013524	    -11.44547086	      6.53545097	     25.81453180	      0.45054857	    -18.06430215	    -26.91072253	     -7.49999987	      0.22131818	     10.99179717	     -5.50346894	     40.22055323	     -4.36385346	     65.17241842	    132.16063350	    100.34838254	     38.61199563	      1.44141743	     70.79555613	    126.50490823	    108.38089928
      5.96666670	    -11.56746237	     -4.55791800	      3.72899639	      1.15727604	      0.74764973	      0.23511970	     39.26657745	     11.63114290	     -5.35048620	     66.32410748	      1.15757405	     41.64200218	     -0.91801592	     -7.49999987	     67.40062630	    -11.72240537	      6.46430363	     26.29618567	      0.45895502	    -18.24768360	    -26.83343482	     -7.49999987	      0.25128855	     11.14814070	     -5.44067784	     40.39017022	     -4.52252647	     64.45648588	    132.28699480	    100.04553872	     38.84258041	      1.60741005	     70.66964171	    126.94317937	    108.44926504
